<svg width="100" height="100" viewBox="0 0 100 100" fill="none" xmlns="http://www.w3.org/2000/svg">
<g clip-path="url(#clip0_1_2)">
<path d="M98.1808 88.7525V86.158C98.1784 84.6221 97.6969 83.125 96.8033 81.875C95.9096 80.6249 94.6482 79.684 93.1944 79.1831V1.19013C93.1944 0.874485 93.0689 0.571772 92.8454 0.34858C92.622 0.125388 92.3189 0 92.0028 0C91.6868 0 91.3837 0.125388 91.1603 0.34858C90.9368 0.571772 90.8112 0.874485 90.8112 1.19013V78.7753H88.1302V59.1779C88.1189 58.5716 87.8699 57.9939 87.4366 57.5691C87.0033 57.1443 86.4205 56.9063 85.8133 56.9063C85.2062 56.9063 84.6233 57.1443 84.19 57.5691C83.7567 57.9939 83.5077 58.5716 83.4965 59.1779V64.1367H80.7002C80.8346 63.2988 80.638 62.4415 80.1521 61.7454C79.8478 61.3331 79.4487 61 78.9884 60.7742C78.5281 60.5484 78.0202 60.4366 77.5075 60.4481C77.405 60.4481 77.3018 60.4481 77.1969 60.4608C73.3362 59.9994 69.4513 59.7692 65.563 59.7713C62.3029 59.7405 59.045 59.9527 55.8166 60.4061C55.5697 60.3501 55.3174 60.3216 55.0643 60.3212C54.5627 60.3182 54.0678 60.4358 53.6213 60.664C53.1749 60.8923 52.79 61.2245 52.4992 61.6327C52.0896 62.3365 51.8726 63.1355 51.87 63.9495C51.8746 64.0118 51.8746 64.0744 51.87 64.1367H48.1491C48.133 64.0757 48.1261 64.0126 48.1284 63.9495C48.1617 63.131 47.942 62.3222 47.4992 61.6327C47.2084 61.2245 46.8235 60.8923 46.3771 60.664C45.9306 60.4358 45.4357 60.3182 44.9341 60.3212C44.681 60.3216 44.4287 60.3501 44.1819 60.4061C40.9534 59.9527 37.6955 59.7405 34.4354 59.7713C30.5472 59.7692 26.6622 59.9994 22.8015 60.4608C22.6985 60.4523 22.5951 60.4481 22.4917 60.4481C21.9789 60.4365 21.4709 60.5483 21.0104 60.7741C20.55 60.9999 20.1507 61.333 19.8464 61.7454C19.3604 62.4415 19.1639 63.2988 19.2982 64.1367H16.502V59.1779C16.4907 58.5716 16.2417 57.9939 15.8084 57.5691C15.3751 57.1443 14.7923 56.9063 14.1851 56.9063C13.578 56.9063 12.9951 57.1443 12.5618 57.5691C12.1285 57.9939 11.8795 58.5716 11.8683 59.1779V78.7753H9.18718V1.19013C9.18718 0.874485 9.06163 0.571772 8.83817 0.34858C8.6147 0.125388 8.31161 0 7.99558 0C7.67955 0 7.37647 0.125388 7.153 0.34858C6.92953 0.571772 6.80399 0.874485 6.80399 1.19013V79.1831C5.35021 79.684 4.08881 80.6249 3.19516 81.875C2.3015 83.125 1.82 84.6221 1.81758 86.158V88.7525C1.28344 88.9586 0.824096 89.3211 0.499761 89.7924C0.175427 90.2637 0.00122933 90.8219 0 91.3938V94.6841C0.00126208 96.0936 0.562423 97.445 1.5603 98.4416C2.55818 99.4383 3.91123 99.9987 5.32245 100H94.6776C96.0888 99.9987 97.4418 99.4383 98.4397 98.4416C99.4376 97.445 99.9987 96.0936 100 94.6841V91.3938C99.9987 90.8217 99.8242 90.2634 99.4996 89.792C99.175 89.3207 98.7153 88.9583 98.1808 88.7525ZM81.1728 67.8372H83.4965V73.6554H81.0338C81.2752 71.7255 81.3218 69.7764 81.1728 67.8372ZM79.9256 78.5484C80.0607 78.1517 80.1822 77.7549 80.2935 77.3582H83.4965V78.7737H79.9058C79.9098 78.6959 79.9264 78.6317 79.9256 78.55V78.5484ZM55.0611 62.6975C55.1772 62.6986 55.2925 62.7179 55.4027 62.7546C55.5109 62.7921 55.6242 62.8124 55.7387 62.8149C55.7784 62.8148 55.8179 62.8117 55.8571 62.8054C59.0691 62.3329 62.3133 62.113 65.5598 62.1476C69.4453 62.1428 73.3273 62.3792 77.1834 62.8554C77.2882 62.8358 77.3945 62.8255 77.5012 62.8244C78.2463 62.8244 78.5053 63.3893 78.2646 64.1018C78.51 65.6736 79.8486 71.7186 77.5139 78.2128C77.5389 78.3982 77.541 78.5861 77.5202 78.7721H54.2786C54.1617 78.5167 54.1452 78.2266 54.2325 77.9597C54.2762 77.8215 54.2762 77.6733 54.2325 77.5352C51.9113 70.8705 54.1301 64.9992 54.3024 64.0471C54.1054 63.4599 54.3851 62.6991 55.0643 62.6991L55.0611 62.6975ZM51.0383 67.8356C50.7665 69.7636 50.7328 71.7176 50.9382 73.6538H49.0571C49.2632 71.7177 49.2296 69.7635 48.957 67.8356H51.0383ZM48.1721 77.8533C48.2261 77.6867 48.2674 77.5233 48.3159 77.3582H51.6809C51.7294 77.5233 51.7707 77.6867 51.8247 77.8533C51.7832 78.1586 51.7813 78.468 51.8192 78.7737H48.1721C48.2123 78.4682 48.2123 78.1588 48.1721 77.8533ZM22.4917 62.826C22.5983 62.8271 22.7046 62.8374 22.8095 62.8569C26.6656 62.3808 30.5476 62.1444 34.433 62.1492C37.6795 62.1146 40.9237 62.3345 44.1358 62.807C44.1749 62.8132 44.2145 62.8164 44.2541 62.8165C44.3686 62.814 44.482 62.7937 44.5902 62.7562C44.7004 62.7194 44.8156 62.7002 44.9318 62.6991C45.611 62.6991 45.8906 63.4599 45.6936 64.0479C45.866 65 48.0847 70.876 45.7635 77.536C45.7198 77.6741 45.7198 77.8223 45.7635 77.9604C45.8518 78.2267 45.8382 78.5161 45.7254 78.7729H22.4798C22.4567 78.5872 22.4567 78.3993 22.4798 78.2135C20.1451 71.7202 21.4836 65.6775 21.7291 64.1026C21.4876 63.3909 21.7466 62.826 22.4917 62.826ZM16.502 67.8372H18.8256C18.6756 69.7762 18.7211 71.7254 18.9614 73.6554H16.4988L16.502 67.8372ZM16.502 77.3582H19.705C19.8162 77.7549 19.9377 78.1517 20.0728 78.5484C20.0728 78.6277 20.0823 78.6975 20.0871 78.7721H16.502V77.3582ZM95.7977 88.5542H4.20076V86.158C4.20223 84.8315 4.73046 83.5596 5.66957 82.6215C6.60869 81.6834 7.882 81.1556 9.21021 81.154H90.7882C92.1164 81.1556 93.3897 81.6834 94.3288 82.6215C95.268 83.5596 95.7962 84.8315 95.7977 86.158V88.5542Z" fill="#15304E"/>
</g>
<defs>
<clipPath id="clip0_1_2">
<rect width="100" height="100" fill="white"/>
</clipPath>
</defs>
</svg>
