<svg xmlns="http://www.w3.org/2000/svg" xmlns:xlink="http://www.w3.org/1999/xlink" xmlns:svgjs="http://svgjs.com/svgjs" width="512" height="512" x="0" y="0" viewBox="0 0 512 512" style="enable-background:new 0 0 512 512" xml:space="preserve" class=""><g><path d="M336.42 119.686a19.962 19.962 0 0 0-11.682-15.204 19.965 19.965 0 0 0-19.11 1.572 9.654 9.654 0 0 0-.487.341l-67.125 50.003-70.288 11.078c-8.621 1.359-15.078 8.064-16.572 16.198l-20.928 3.298a19.908 19.908 0 0 0-13.083 8.004 19.905 19.905 0 0 0-3.591 14.91l3.12 19.796c1.554 9.863 10.097 16.92 19.783 16.92 1.033 0 24.051-3.543 24.051-3.543 3.923 7.66 13.591 12.193 22.484 10.042l3.981 25.258c1.25 7.931 5.514 14.9 12.005 19.624 5.195 3.781 11.319 5.761 17.622 5.761 1.574 0 3.159-.123 4.744-.373 7.931-1.25 14.901-5.514 19.625-12.005 4.724-6.492 6.637-14.435 5.387-22.366l-3.981-25.258 9.337-1.472s79.115 24.245 79.209 24.271a19.96 19.96 0 0 0 18.667-4.382 19.96 19.96 0 0 0 6.439-18.06zM224.766 279.575a9.956 9.956 0 0 1-6.542 4.002 9.96 9.96 0 0 1-7.455-1.796 9.956 9.956 0 0 1-4.002-6.541l-3.98-25.258 19.795-3.12 3.981 25.258a9.96 9.96 0 0 1-1.797 7.455zm-88.298-53.012-3.12-19.796 19.795-3.12 3.12 19.795zm41.679 7.016-7.299-46.308 62.834-9.903 7.298 46.308zm83.213-9.311-8.501-53.938 63.77-47.505 19.605 124.389zM379.562 184.577l9.908-2.024c5.422-1.108 8.919-6.401 7.812-11.822-1.108-5.421-6.397-8.916-11.822-7.812l-9.908 2.024c-5.422 1.108-8.919 6.401-7.812 11.822.97 4.745 5.145 8.016 9.807 8.016.663.001 1.338-.066 2.015-.204zM376.234 148.127l7.568-6.707c4.141-3.67 4.523-10.002.853-14.144-3.67-4.141-10.002-4.524-14.144-.853l-7.569 6.707c-4.141 3.67-4.523 10.002-.853 14.144a9.994 9.994 0 0 0 7.502 3.374 9.983 9.983 0 0 0 6.643-2.521zM393.774 207.081l-9.593-3.201c-5.249-1.751-10.924 1.083-12.676 6.333-1.751 5.25 1.084 10.925 6.333 12.676l9.593 3.201c1.053.351 2.121.518 3.173.518 4.193 0 8.103-2.654 9.503-6.851 1.751-5.249-1.084-10.924-6.333-12.676z" fill="#ffffff" data-original="#000000" opacity="1" class=""></path><circle cx="256" cy="498.708" r="10" fill="#ffffff" data-original="#000000" opacity="1" class=""></circle><path d="M511.865 224.277c.524-3.304-.607-6.795-3.321-9.148l-68.983-59.812V79.383c0-11.049-8.99-20.039-20.039-20.039h-90.671c-.08-.074-.151-.153-.234-.225L269.128 7.535c-7.484-6.49-18.772-6.49-26.256 0l-59.748 51.809H92.478c-11.049 0-20.039 8.99-20.039 20.039v75.934L3.456 215.129c-2.714 2.353-3.845 5.844-3.321 9.148C.054 224.79 0 489.294 0 489.294c0 11.049 8.99 20.039 20.039 20.039h191.047c5.534 0 10.02-4.486 10.02-10.02s-4.486-10.02-10.02-10.02H38.976l158.548-136.289 47.685 30.471A20.027 20.027 0 0 0 256 386.617c3.756 0 7.513-1.047 10.791-3.141l49.859-31.86 160.328 137.678H300.913c-5.534 0-10.02 4.486-10.02 10.02s4.486 10.02 10.02 10.02H491.96c11.049 0 20.039-8.99 20.039-20.039.001-.001-.053-264.505-.134-265.018zm-27.515-3.603-44.789 28.62V181.84zM256 22.675l42.288 36.669h-84.577zM72.439 181.84v67.454l-44.789-28.62zm-52.4 297.307V239.592l159.852 102.145zM256 366.59l-53.555-34.222a10.247 10.247 0 0 0-.817-.522l-109.15-69.747V79.383h327.044v182.716zm235.961 109.157L334.285 340.346 491.96 239.591v236.156z" fill="#ffffff" data-original="#000000" opacity="1" class=""></path></g></svg>